<?xml version="1.0" encoding="utf-8"?>
<!-- Generator: Adobe Illustrator 16.0.0, SVG Export Plug-In . SVG Version: 6.00 Build 0)  -->
<!DOCTYPE svg PUBLIC "-//W3C//DTD SVG 1.1//EN" "http://www.w3.org/Graphics/SVG/1.1/DTD/svg11.dtd">
<svg version="1.1" id="Layer_1" xmlns="http://www.w3.org/2000/svg" xmlns:xlink="http://www.w3.org/1999/xlink" x="0px" y="0px"
	 width="600px" height="400px" viewBox="-225 -144 600 400" enable-background="new -225 -144 600 400" xml:space="preserve">
<g enable-background="new    ">
	<path fill="#878787" d="M-123.111-35.447h4.593l13.491,20.782l13.434-20.782h4.65l-16.189,24.112V5.543h-3.903v-16.878
		L-123.111-35.447z"/>
	<path fill="#878787" d="M-84.36-23.047c0.804-2.563,2.01-4.832,3.617-6.803c1.607-1.971,3.625-3.54,6.057-4.708
		c2.43-1.167,5.253-1.751,8.468-1.751s6.027,0.584,8.439,1.751c2.411,1.168,4.42,2.737,6.027,4.708
		c1.607,1.972,2.813,4.24,3.617,6.803c0.804,2.564,1.205,5.263,1.205,8.095c0,2.833-0.401,5.531-1.205,8.095
		c-0.804,2.564-2.01,4.822-3.617,6.774c-1.607,1.952-3.616,3.512-6.027,4.679c-2.412,1.167-5.225,1.751-8.439,1.751
		s-6.038-0.584-8.468-1.751c-2.432-1.167-4.449-2.727-6.057-4.679c-1.607-1.952-2.813-4.21-3.617-6.774
		c-0.804-2.563-1.205-5.262-1.205-8.095C-85.565-17.784-85.164-20.482-84.36-23.047z M-80.772-8.379
		c0.593,2.163,1.512,4.096,2.756,5.798c1.243,1.704,2.842,3.071,4.794,4.105c1.952,1.033,4.286,1.55,7.004,1.55
		c2.717,0,5.042-0.517,6.975-1.55c1.933-1.034,3.521-2.401,4.766-4.105c1.243-1.703,2.161-3.636,2.756-5.798
		c0.593-2.162,0.89-4.353,0.89-6.573c0-2.258-0.297-4.458-0.89-6.602c-0.595-2.143-1.513-4.066-2.756-5.77
		c-1.244-1.703-2.833-3.072-4.766-4.105s-4.258-1.55-6.975-1.55c-2.718,0-5.052,0.517-7.004,1.55s-3.551,2.402-4.794,4.105
		c-1.244,1.703-2.163,3.626-2.756,5.77c-0.594,2.144-0.89,4.344-0.89,6.602C-81.662-12.732-81.366-10.541-80.772-8.379z"/>
	<path fill="#878787" d="M-37.343-35.447v25.375c0,2.374,0.268,4.392,0.804,6.057s1.321,3.024,2.354,4.076
		c1.033,1.053,2.296,1.818,3.789,2.296c1.492,0.479,3.176,0.717,5.052,0.717c1.913,0,3.617-0.238,5.109-0.717
		c1.493-0.479,2.756-1.244,3.789-2.296c1.033-1.052,1.817-2.411,2.354-4.076s0.804-3.683,0.804-6.057v-25.375h3.904v26.236
		c0,2.105-0.297,4.105-0.89,6c-0.594,1.895-1.531,3.55-2.813,4.966c-1.282,1.417-2.928,2.536-4.938,3.358
		c-2.009,0.823-4.449,1.234-7.319,1.234c-2.833,0-5.253-0.412-7.263-1.234c-2.009-0.822-3.655-1.942-4.937-3.358
		c-1.283-1.416-2.221-3.071-2.813-4.966c-0.594-1.895-0.89-3.894-0.89-6v-26.236H-37.343z"/>
	<path fill="#878787" d="M17.254-35.447c1.684,0,3.281,0.211,4.794,0.631c1.512,0.422,2.832,1.062,3.961,1.923
		s2.028,1.972,2.698,3.33c0.67,1.359,1.005,2.957,1.005,4.794c0,2.603-0.67,4.861-2.009,6.774c-1.341,1.915-3.33,3.139-5.971,3.674
		v0.115c1.339,0.192,2.448,0.545,3.329,1.062c0.88,0.517,1.598,1.177,2.153,1.98c0.555,0.804,0.956,1.732,1.205,2.784
		c0.249,1.053,0.411,2.191,0.488,3.416c0.038,0.689,0.076,1.531,0.115,2.526c0.037,0.996,0.114,2,0.229,3.014
		c0.114,1.015,0.296,1.972,0.545,2.871c0.249,0.899,0.583,1.598,1.005,2.095h-4.306c-0.229-0.382-0.412-0.851-0.545-1.407
		c-0.135-0.554-0.23-1.128-0.287-1.722c-0.058-0.593-0.106-1.177-0.144-1.751c-0.039-0.574-0.077-1.071-0.115-1.493
		c-0.077-1.454-0.201-2.899-0.373-4.334c-0.172-1.435-0.536-2.717-1.091-3.846c-0.556-1.128-1.359-2.038-2.411-2.727
		c-1.053-0.689-2.497-0.995-4.334-0.918H2.385V5.543h-3.903v-40.99H17.254z M16.967-15.985c1.187,0,2.315-0.181,3.388-0.545
		c1.071-0.363,2.009-0.89,2.812-1.579s1.444-1.521,1.924-2.497c0.478-0.976,0.718-2.096,0.718-3.358
		c0-2.526-0.728-4.516-2.182-5.971c-1.455-1.454-3.675-2.182-6.66-2.182H2.385v16.132H16.967z"/>
	<path fill="#878787" d="M70.931-35.447c1.838,0,3.502,0.258,4.995,0.775c1.492,0.517,2.774,1.283,3.846,2.296
		c1.071,1.015,1.895,2.249,2.469,3.703c0.574,1.455,0.861,3.1,0.861,4.937s-0.287,3.483-0.861,4.937
		c-0.574,1.455-1.397,2.689-2.469,3.703c-1.071,1.015-2.354,1.78-3.846,2.296c-1.493,0.517-3.157,0.775-4.995,0.775H56.636V5.543
		h-3.903v-40.99H70.931z M70.07-15.354c2.717,0,4.917-0.689,6.602-2.067c1.684-1.378,2.526-3.482,2.526-6.315
		c0-2.832-0.843-4.937-2.526-6.315c-1.685-1.378-3.885-2.067-6.602-2.067H56.636v16.764H70.07z"/>
	<path fill="#878787" d="M92.804-35.447v17.797h24.342v-17.797h3.904v40.99h-3.904v-19.864H92.804V5.543H88.9v-40.99H92.804z"/>
	<path fill="#878787" d="M128.339-23.047c0.804-2.563,2.01-4.832,3.617-6.803c1.607-1.971,3.626-3.54,6.057-4.708
		c2.43-1.167,5.253-1.751,8.468-1.751s6.028,0.584,8.439,1.751c2.411,1.168,4.42,2.737,6.027,4.708
		c1.607,1.972,2.813,4.24,3.617,6.803c0.804,2.564,1.206,5.263,1.206,8.095c0,2.833-0.402,5.531-1.206,8.095
		c-0.804,2.564-2.01,4.822-3.617,6.774c-1.607,1.952-3.616,3.512-6.027,4.679s-5.225,1.751-8.439,1.751s-6.038-0.584-8.468-1.751
		c-2.431-1.167-4.449-2.727-6.057-4.679c-1.607-1.952-2.813-4.21-3.617-6.774c-0.804-2.563-1.205-5.262-1.205-8.095
		C127.134-17.784,127.535-20.482,128.339-23.047z M131.927-8.379c0.594,2.163,1.512,4.096,2.756,5.798
		c1.243,1.704,2.842,3.071,4.794,4.105c1.952,1.033,4.286,1.55,7.004,1.55c2.717,0,5.042-0.517,6.976-1.55
		c1.932-1.034,3.521-2.401,4.765-4.105c1.243-1.703,2.162-3.636,2.756-5.798c0.593-2.162,0.89-4.353,0.89-6.573
		c0-2.258-0.297-4.458-0.89-6.602c-0.594-2.143-1.513-4.066-2.756-5.77c-1.244-1.703-2.833-3.072-4.765-4.105
		c-1.934-1.033-4.259-1.55-6.976-1.55c-2.718,0-5.052,0.517-7.004,1.55s-3.551,2.402-4.794,4.105
		c-1.244,1.703-2.162,3.626-2.756,5.77c-0.594,2.144-0.89,4.344-0.89,6.602C131.037-12.732,131.333-10.541,131.927-8.379z"/>
	<path fill="#878787" d="M199.93-35.447v3.33h-14.295V5.543h-3.904v-37.661h-14.237v-3.33H199.93z"/>
	<path fill="#878787" d="M202.799-23.047c0.804-2.563,2.01-4.832,3.617-6.803c1.607-1.971,3.626-3.54,6.057-4.708
		c2.43-1.167,5.253-1.751,8.468-1.751s6.028,0.584,8.439,1.751c2.411,1.168,4.42,2.737,6.027,4.708
		c1.607,1.972,2.813,4.24,3.617,6.803c0.804,2.564,1.206,5.263,1.206,8.095c0,2.833-0.402,5.531-1.206,8.095
		c-0.804,2.564-2.01,4.822-3.617,6.774c-1.607,1.952-3.616,3.512-6.027,4.679s-5.225,1.751-8.439,1.751s-6.038-0.584-8.468-1.751
		c-2.431-1.167-4.449-2.727-6.057-4.679c-1.607-1.952-2.813-4.21-3.617-6.774c-0.804-2.563-1.205-5.262-1.205-8.095
		C201.594-17.784,201.995-20.482,202.799-23.047z M206.387-8.379c0.594,2.163,1.512,4.096,2.756,5.798
		c1.243,1.704,2.842,3.071,4.794,4.105c1.952,1.033,4.286,1.55,7.004,1.55c2.717,0,5.042-0.517,6.976-1.55
		c1.932-1.034,3.521-2.401,4.765-4.105c1.243-1.703,2.162-3.636,2.756-5.798c0.593-2.162,0.89-4.353,0.89-6.573
		c0-2.258-0.297-4.458-0.89-6.602c-0.594-2.143-1.513-4.066-2.756-5.77c-1.244-1.703-2.833-3.072-4.765-4.105
		c-1.934-1.033-4.259-1.55-6.976-1.55c-2.718,0-5.052,0.517-7.004,1.55s-3.551,2.402-4.794,4.105
		c-1.244,1.703-2.162,3.626-2.756,5.77c-0.594,2.144-0.89,4.344-0.89,6.602C205.497-12.732,205.793-10.541,206.387-8.379z"/>
	<path fill="#878787" d="M249.128-2.667c0.689,1.417,1.637,2.546,2.842,3.387c1.206,0.842,2.631,1.445,4.277,1.808
		c1.645,0.364,3.406,0.545,5.281,0.545c1.071,0,2.239-0.152,3.502-0.459c1.264-0.306,2.44-0.794,3.531-1.464
		c1.091-0.669,1.999-1.531,2.727-2.583c0.727-1.052,1.091-2.325,1.091-3.818c0-1.148-0.258-2.143-0.775-2.985
		c-0.517-0.841-1.187-1.55-2.009-2.124c-0.823-0.574-1.732-1.042-2.728-1.407c-0.995-0.363-1.971-0.66-2.928-0.89l-9.128-2.239
		c-1.187-0.306-2.345-0.689-3.473-1.148c-1.13-0.459-2.115-1.071-2.957-1.837c-0.843-0.765-1.521-1.703-2.038-2.813
		c-0.517-1.109-0.775-2.468-0.775-4.076c0-0.995,0.191-2.162,0.574-3.502c0.383-1.339,1.1-2.603,2.153-3.789
		c1.052-1.186,2.497-2.19,4.334-3.014c1.837-0.823,4.191-1.234,7.062-1.234c2.028,0,3.961,0.269,5.799,0.804
		c1.837,0.537,3.444,1.34,4.822,2.411c1.378,1.072,2.478,2.402,3.301,3.99c0.822,1.588,1.234,3.436,1.234,5.54h-3.904
		c-0.077-1.569-0.431-2.937-1.062-4.105c-0.632-1.167-1.455-2.143-2.469-2.928c-1.015-0.784-2.182-1.378-3.502-1.78
		s-2.708-0.603-4.162-0.603c-1.34,0-2.632,0.144-3.875,0.43c-1.244,0.287-2.335,0.747-3.272,1.378
		c-0.938,0.631-1.693,1.464-2.268,2.498c-0.574,1.033-0.861,2.316-0.861,3.846c0,0.957,0.162,1.79,0.488,2.498
		c0.324,0.708,0.774,1.311,1.349,1.808c0.574,0.498,1.234,0.9,1.98,1.206c0.747,0.307,1.54,0.555,2.383,0.747l9.989,2.468
		c1.454,0.383,2.822,0.853,4.104,1.407c1.282,0.555,2.411,1.244,3.388,2.067c0.976,0.823,1.741,1.828,2.296,3.014
		c0.555,1.187,0.833,2.622,0.833,4.306c0,0.459-0.049,1.072-0.144,1.837c-0.097,0.766-0.326,1.579-0.689,2.44
		c-0.364,0.861-0.881,1.732-1.55,2.612c-0.67,0.881-1.589,1.675-2.756,2.383c-1.168,0.708-2.612,1.283-4.334,1.722
		c-1.723,0.439-3.789,0.66-6.2,0.66s-4.65-0.278-6.717-0.833c-2.067-0.554-3.828-1.406-5.282-2.555
		c-1.455-1.148-2.574-2.621-3.358-4.42c-0.785-1.798-1.119-3.961-1.005-6.487h3.904C248.113-5.843,248.439-4.082,249.128-2.667z"/>
</g>
<g enable-background="new    ">
	<path fill="#878787" d="M-104.215-116.871c3.69,0,6.668,0.603,8.932,1.808c2.263,1.207,4.022,2.928,5.277,5.167
		c1.255,2.24,2.104,4.934,2.547,8.083c0.442,3.149,0.664,6.668,0.664,10.555c0,4.626-0.284,8.648-0.849,12.068
		c-0.566,3.42-1.539,6.237-2.916,8.451c-1.378,2.214-3.224,3.864-5.536,4.945c-2.313,1.083-5.24,1.624-8.783,1.624h-16.755v-52.702
		H-104.215z M-106.281-71.993c1.869,0,3.37-0.319,4.502-0.959c1.132-0.639,2.03-1.698,2.694-3.174
		c0.665-1.476,1.107-3.419,1.329-5.831c0.222-2.411,0.332-5.413,0.332-9.005c0-3.001-0.1-5.634-0.295-7.898
		c-0.197-2.263-0.604-4.145-1.219-5.646c-0.615-1.5-1.525-2.632-2.73-3.395c-1.206-0.763-2.817-1.145-4.835-1.145h-4.502v37.054
		H-106.281z"/>
	<path fill="#878787" d="M-60.149-116.871c4.429,0,7.872,1.12,10.333,3.358c2.46,2.24,3.691,5.646,3.691,10.223
		c0,3.543-0.715,6.435-2.141,8.673c-1.428,2.24-3.643,3.679-6.644,4.318v0.147c2.657,0.395,4.601,1.255,5.831,2.583
		c1.229,1.329,1.993,3.469,2.288,6.422c0.099,0.985,0.172,2.055,0.222,3.21c0.049,1.157,0.098,2.449,0.147,3.875
		c0.099,2.805,0.246,4.945,0.443,6.421c0.295,1.476,0.934,2.485,1.919,3.026v0.443h-11.515c-0.542-0.738-0.886-1.587-1.033-2.546
		c-0.148-0.959-0.247-1.956-0.296-2.99l-0.295-10.112c-0.1-2.067-0.616-3.691-1.55-4.872c-0.936-1.181-2.51-1.771-4.725-1.771
		h-5.684v22.291h-10.629v-52.702H-60.149z M-64.727-93.841c2.559,0,4.527-0.602,5.905-1.809c1.377-1.205,2.066-3.235,2.066-6.089
		c0-4.872-2.461-7.308-7.381-7.308h-5.02v15.206H-64.727z"/>
	<path fill="#878787" d="M-15.346-116.871l13.95,52.702h-11.071l-2.437-11.146h-14.023l-2.437,11.146h-11.071l13.95-52.702H-15.346z
		 M-16.748-84.024l-5.093-23.694h-0.148l-5.093,23.694H-16.748z"/>
	<path fill="#878787" d="M25.361-104.249c-0.221-1.033-0.579-1.98-1.07-2.842c-0.492-0.86-1.119-1.574-1.882-2.14
		c-0.764-0.565-1.687-0.849-2.768-0.849c-2.56,0-4.405,1.428-5.536,4.281c-1.133,2.854-1.698,7.578-1.698,14.172
		c0,3.149,0.099,6.004,0.296,8.562c0.195,2.559,0.554,4.737,1.07,6.533c0.517,1.796,1.255,3.174,2.214,4.133
		c0.96,0.959,2.202,1.439,3.728,1.439c0.639,0,1.34-0.172,2.104-0.517c0.763-0.343,1.477-0.86,2.141-1.55
		c0.664-0.688,1.218-1.562,1.661-2.62c0.442-1.058,0.664-2.3,0.664-3.728v-5.389h-7.012v-7.824h17.198v28.417h-7.824v-4.872h-0.147
		c-1.28,2.067-2.818,3.531-4.613,4.392c-1.797,0.86-3.949,1.292-6.459,1.292c-3.248,0-5.894-0.566-7.935-1.698
		c-2.043-1.131-3.643-2.879-4.798-5.241c-1.157-2.362-1.932-5.277-2.325-8.747c-0.395-3.469-0.591-7.492-0.591-12.068
		c0-4.429,0.283-8.315,0.85-11.662c0.564-3.346,1.537-6.138,2.915-8.378c1.377-2.238,3.198-3.923,5.462-5.056
		c2.263-1.131,5.094-1.698,8.488-1.698c5.807,0,9.989,1.439,12.549,4.318c2.558,2.878,3.838,7,3.838,12.363H25.693
		C25.693-102.207,25.583-103.215,25.361-104.249z"/>
	<path fill="#878787" d="M90.131-85.5c0.344-1.525,0.516-2.854,0.516-3.986h9.154c0,2.854-0.506,5.598-1.514,8.23
		c-1.01,2.633-2.301,5.082-3.875,7.344l6.938,9.743H90.057l-2.953-4.06c-1.328,1.575-3.111,2.781-5.352,3.617
		c-2.238,0.836-4.686,1.255-7.343,1.255c-3.298,0-6.005-0.48-8.12-1.439c-2.116-0.959-3.764-2.202-4.945-3.728
		c-1.181-1.524-1.992-3.174-2.436-4.945c-0.442-1.771-0.664-3.396-0.664-4.872c0-3.1,0.946-5.892,2.842-8.378
		c1.894-2.484,4.489-4.761,7.787-6.827l-1.846-2.731c-0.738-1.082-1.341-2.041-1.809-2.878c-0.468-0.836-0.824-1.624-1.07-2.362
		c-0.246-0.738-0.418-1.451-0.517-2.14c-0.099-0.688-0.147-1.403-0.147-2.141c0-1.722,0.332-3.259,0.997-4.613
		c0.664-1.353,1.587-2.51,2.768-3.469s2.595-1.698,4.244-2.214c1.648-0.517,3.456-0.775,5.425-0.775
		c2.264,0,4.219,0.284,5.869,0.849c1.646,0.566,3.012,1.354,4.096,2.362c1.082,1.009,1.883,2.178,2.398,3.506
		c0.518,1.329,0.775,2.756,0.775,4.281c0,2.657-0.75,5.044-2.252,7.16c-1.5,2.116-3.801,4.281-6.9,6.496l7.898,10.703
		C89.342-82.646,89.785-83.975,90.131-85.5z M69.574-82.843c-0.764,1.378-1.145,2.878-1.145,4.502c0,0.788,0.159,1.6,0.48,2.436
		c0.319,0.837,0.786,1.587,1.402,2.251c0.614,0.665,1.39,1.207,2.325,1.624c0.934,0.418,1.992,0.627,3.173,0.627
		c2.805,0,5.094-1.107,6.865-3.322l-8.857-12.548C71.752-85.697,70.336-84.22,69.574-82.843z M74.852-100.337l1.254,1.771
		l1.92-1.624c1.182-0.983,2.029-1.956,2.547-2.916c0.516-0.959,0.775-1.906,0.775-2.842c0-1.426-0.432-2.521-1.293-3.284
		c-0.861-0.763-1.98-1.145-3.357-1.145c-1.28,0-2.351,0.369-3.211,1.107c-0.861,0.738-1.292,1.797-1.292,3.174
		C72.194-104.618,73.08-102.699,74.852-100.337z"/>
	<path fill="#878787" d="M140.469-116.871c3.69,0,6.667,0.603,8.932,1.808c2.263,1.207,4.022,2.928,5.277,5.167
		c1.255,2.24,2.104,4.934,2.546,8.083c0.443,3.149,0.665,6.668,0.665,10.555c0,4.626-0.284,8.648-0.85,12.068
		c-0.565,3.42-1.538,6.237-2.915,8.451c-1.378,2.214-3.224,3.864-5.536,4.945c-2.313,1.083-5.24,1.624-8.783,1.624h-16.756v-52.702
		H140.469z M138.402-71.993c1.869,0,3.369-0.319,4.502-0.959c1.132-0.639,2.03-1.698,2.694-3.174s1.107-3.419,1.329-5.831
		c0.221-2.411,0.332-5.413,0.332-9.005c0-3.001-0.1-5.634-0.296-7.898c-0.197-2.263-0.603-4.145-1.218-5.646
		c-0.615-1.5-1.525-2.632-2.73-3.395c-1.207-0.763-2.818-1.145-4.835-1.145h-4.503v37.054H138.402z"/>
	<path fill="#878787" d="M184.533-116.871c4.429,0,7.873,1.12,10.334,3.358c2.46,2.24,3.69,5.646,3.69,10.223
		c0,3.543-0.714,6.435-2.141,8.673c-1.428,2.24-3.642,3.679-6.643,4.318v0.147c2.657,0.395,4.601,1.255,5.831,2.583
		c1.229,1.329,1.993,3.469,2.288,6.422c0.098,0.985,0.172,2.055,0.222,3.21c0.048,1.157,0.098,2.449,0.147,3.875
		c0.098,2.805,0.245,4.945,0.442,6.421c0.296,1.476,0.935,2.485,1.92,3.026v0.443H189.11c-0.542-0.738-0.886-1.587-1.034-2.546
		c-0.147-0.959-0.246-1.956-0.295-2.99l-0.295-10.112c-0.1-2.067-0.616-3.691-1.551-4.872c-0.935-1.181-2.509-1.771-4.724-1.771
		h-5.684v22.291h-10.629v-52.702H184.533z M179.957-93.841c2.559,0,4.527-0.602,5.905-1.809c1.377-1.205,2.066-3.235,2.066-6.089
		c0-4.872-2.461-7.308-7.381-7.308h-5.02v15.206H179.957z"/>
	<path fill="#878787" d="M205.386-101.555c0.369-3.37,1.182-6.261,2.437-8.673c1.254-2.411,3.062-4.293,5.425-5.647
		c2.362-1.353,5.536-2.03,9.521-2.03c3.986,0,7.16,0.677,9.521,2.03c2.362,1.354,4.171,3.236,5.426,5.647
		c1.255,2.412,2.066,5.303,2.436,8.673c0.369,3.371,0.554,7.049,0.554,11.035c0,4.036-0.185,7.726-0.554,11.072
		c-0.369,3.347-1.181,6.226-2.436,8.636c-1.255,2.412-3.063,4.257-5.426,5.536c-2.361,1.279-5.535,1.919-9.521,1.919
		c-3.985,0-7.159-0.64-9.521-1.919c-2.362-1.279-4.171-3.124-5.425-5.536c-1.255-2.411-2.067-5.289-2.437-8.636
		c-0.369-3.346-0.554-7.036-0.554-11.072C204.832-94.506,205.017-98.184,205.386-101.555z M215.72-81.478
		c0.172,2.485,0.517,4.503,1.033,6.053c0.517,1.55,1.255,2.683,2.215,3.396c0.959,0.714,2.226,1.07,3.801,1.07
		c1.574,0,2.842-0.356,3.802-1.07c0.959-0.713,1.697-1.845,2.214-3.396c0.517-1.55,0.86-3.567,1.033-6.053
		c0.172-2.484,0.259-5.499,0.259-9.042s-0.087-6.544-0.259-9.005c-0.173-2.46-0.517-4.477-1.033-6.053
		c-0.517-1.574-1.255-2.718-2.214-3.432c-0.96-0.713-2.228-1.07-3.802-1.07c-1.575,0-2.842,0.357-3.801,1.07
		c-0.96,0.714-1.698,1.858-2.215,3.432c-0.517,1.576-0.861,3.593-1.033,6.053c-0.173,2.461-0.259,5.462-0.259,9.005
		S215.547-83.962,215.72-81.478z"/>
	<path fill="#878787" d="M265.579-116.871c2.706,0,4.982,0.456,6.828,1.365c1.845,0.911,3.333,2.104,4.466,3.58
		c1.131,1.476,1.942,3.162,2.436,5.056c0.491,1.895,0.738,3.827,0.738,5.794c0,2.707-0.406,5.069-1.219,7.086
		c-0.812,2.018-1.944,3.666-3.395,4.945c-1.452,1.28-3.211,2.24-5.278,2.878c-2.066,0.64-4.354,0.959-6.864,0.959h-5.684v21.037
		h-10.629v-52.702H265.579z M262.332-93.029c2.114,0,3.825-0.639,5.13-1.919c1.303-1.279,1.956-3.272,1.956-5.979
		c0-2.657-0.566-4.674-1.698-6.053c-1.133-1.377-3.026-2.067-5.684-2.067h-4.429v16.018H262.332z"/>
</g>
<g enable-background="new    ">
	<path fill="#878787" d="M-52.989,39.464h-11.515v43.992h-10.629V39.464h-11.515v-8.709h33.658V39.464z"/>
	<path fill="#878787" d="M-48.966,46.07c0.368-3.37,1.181-6.261,2.436-8.673c1.255-2.411,3.063-4.293,5.425-5.647
		c2.362-1.353,5.536-2.03,9.521-2.03c3.986,0,7.16,0.677,9.522,2.03c2.361,1.354,4.17,3.236,5.425,5.647
		c1.255,2.412,2.066,5.303,2.436,8.673c0.369,3.371,0.554,7.049,0.554,11.035c0,4.035-0.185,7.726-0.554,11.071
		c-0.369,3.347-1.181,6.226-2.436,8.636c-1.255,2.412-3.063,4.258-5.425,5.536c-2.362,1.279-5.536,1.919-9.522,1.919
		c-3.985,0-7.159-0.64-9.521-1.919c-2.361-1.278-4.17-3.124-5.425-5.536c-1.255-2.41-2.067-5.289-2.436-8.636
		c-0.369-3.346-0.554-7.036-0.554-11.071C-49.52,53.119-49.335,49.441-48.966,46.07z M-38.633,66.147
		c0.172,2.485,0.517,4.502,1.033,6.053c0.517,1.55,1.255,2.682,2.215,3.395c0.96,0.714,2.226,1.07,3.801,1.07
		s2.842-0.356,3.802-1.07c0.96-0.713,1.697-1.845,2.215-3.395c0.517-1.551,0.86-3.567,1.033-6.053
		c0.172-2.484,0.258-5.499,0.258-9.042c0-3.543-0.086-6.544-0.258-9.005c-0.173-2.46-0.517-4.477-1.033-6.053
		c-0.518-1.574-1.255-2.718-2.215-3.432c-0.96-0.713-2.227-1.07-3.802-1.07s-2.841,0.357-3.801,1.07
		c-0.96,0.714-1.698,1.858-2.215,3.432c-0.517,1.576-0.861,3.593-1.033,6.053c-0.173,2.461-0.258,5.462-0.258,9.005
		C-38.891,60.648-38.806,63.663-38.633,66.147z"/>
	<path fill="#878787" d="M20.306,67.513c0,1.328,0.085,2.547,0.258,3.653c0.172,1.107,0.491,2.067,0.96,2.879
		c0.467,0.812,1.107,1.452,1.919,1.919c0.812,0.469,1.833,0.701,3.063,0.701c1.278,0,2.312-0.232,3.1-0.701
		c0.787-0.467,1.414-1.106,1.883-1.919c0.467-0.812,0.786-1.771,0.959-2.879c0.172-1.106,0.259-2.325,0.259-3.653V30.754h10.629
		v36.758c0,3.347-0.469,6.115-1.402,8.304c-0.936,2.19-2.19,3.925-3.765,5.204c-1.575,1.28-3.371,2.141-5.389,2.583
		c-2.018,0.443-4.109,0.664-6.273,0.664c-2.166,0-4.257-0.197-6.274-0.59c-2.019-0.394-3.813-1.192-5.388-2.399
		c-1.576-1.205-2.831-2.915-3.765-5.13c-0.936-2.214-1.402-5.093-1.402-8.636V30.754h10.629V67.513z"/>
	<path fill="#878787" d="M68.651,30.754c2.706,0,4.982,0.456,6.828,1.365c1.845,0.911,3.333,2.104,4.466,3.58
		c1.131,1.476,1.942,3.162,2.436,5.056c0.491,1.895,0.738,3.827,0.738,5.794c0,2.707-0.406,5.069-1.219,7.086
		c-0.812,2.018-1.944,3.667-3.395,4.945c-1.452,1.28-3.211,2.24-5.277,2.879c-2.067,0.641-4.355,0.96-6.865,0.96H60.68v21.036
		H50.051V30.754H68.651z M65.404,54.596c2.115,0,3.825-0.639,5.13-1.919c1.303-1.279,1.956-3.272,1.956-5.979
		c0-2.657-0.566-4.674-1.698-6.053c-1.132-1.377-3.026-2.067-5.684-2.067H60.68v16.018H65.404z"/>
	<path fill="#878787" d="M88.359,30.754h10.629v43.992h18.822v8.71H88.359V30.754z"/>
	<path fill="#878787" d="M121.98,46.07c0.369-3.37,1.182-6.261,2.437-8.673c1.254-2.411,3.062-4.293,5.425-5.647
		c2.362-1.353,5.536-2.03,9.521-2.03c3.986,0,7.16,0.677,9.521,2.03c2.362,1.354,4.171,3.236,5.426,5.647
		c1.255,2.412,2.066,5.303,2.436,8.673c0.369,3.371,0.554,7.049,0.554,11.035c0,4.035-0.185,7.726-0.554,11.071
		c-0.369,3.347-1.181,6.226-2.436,8.636c-1.255,2.412-3.063,4.258-5.426,5.536c-2.361,1.279-5.535,1.919-9.521,1.919
		c-3.985,0-7.159-0.64-9.521-1.919c-2.362-1.278-4.171-3.124-5.425-5.536c-1.255-2.41-2.067-5.289-2.437-8.636
		c-0.369-3.346-0.554-7.036-0.554-11.071C121.427,53.119,121.611,49.441,121.98,46.07z M132.314,66.147
		c0.172,2.485,0.517,4.502,1.033,6.053c0.517,1.55,1.255,2.682,2.215,3.395c0.959,0.714,2.226,1.07,3.801,1.07
		c1.574,0,2.842-0.356,3.802-1.07c0.959-0.713,1.697-1.845,2.214-3.395c0.517-1.551,0.86-3.567,1.033-6.053
		c0.172-2.484,0.259-5.499,0.259-9.042c0-3.543-0.087-6.544-0.259-9.005c-0.173-2.46-0.517-4.477-1.033-6.053
		c-0.517-1.574-1.255-2.718-2.214-3.432c-0.96-0.713-2.228-1.07-3.802-1.07c-1.575,0-2.842,0.357-3.801,1.07
		c-0.96,0.714-1.698,1.858-2.215,3.432c-0.517,1.576-0.861,3.593-1.033,6.053c-0.173,2.461-0.259,5.462-0.259,9.005
		C132.056,60.648,132.142,63.663,132.314,66.147z"/>
	<path fill="#878787" d="M186.972,30.754l13.95,52.702h-11.071l-2.436-11.146h-14.024l-2.436,11.146h-11.072l13.95-52.702H186.972z
		 M185.569,63.601l-5.093-23.694h-0.147l-5.094,23.694H185.569z"/>
	<path fill="#878787" d="M222.549,30.754c3.69,0,6.667,0.603,8.932,1.808c2.263,1.207,4.022,2.928,5.277,5.167
		c1.255,2.24,2.104,4.934,2.546,8.083c0.443,3.149,0.665,6.668,0.665,10.555c0,4.626-0.284,8.648-0.85,12.068
		c-0.565,3.421-1.538,6.237-2.915,8.451c-1.378,2.215-3.224,3.863-5.536,4.945c-2.313,1.083-5.24,1.624-8.783,1.624h-16.756V30.754
		H222.549z M220.482,75.632c1.869,0,3.369-0.319,4.502-0.959c1.132-0.64,2.03-1.698,2.694-3.175
		c0.664-1.476,1.107-3.419,1.329-5.831c0.221-2.41,0.332-5.412,0.332-9.005c0-3.001-0.1-5.634-0.296-7.898
		c-0.197-2.263-0.603-4.145-1.218-5.646c-0.615-1.5-1.525-2.632-2.73-3.395c-1.207-0.763-2.818-1.145-4.835-1.145h-4.503v37.054
		H220.482z"/>
</g>
<g id="cloud_x5F_upload" opacity="0.7">
	<g>
		<path fill="#3DBCDF" d="M109.144,135.098c-1.465,0-2.882,0.249-4.304,0.429c-5.45-9.623-15.526-16.063-26.963-16.063
			c-11.679,0-21.767,6.506-27.13,16.028c-1.374-0.179-2.74-0.396-4.138-0.396c-17.248,0-31.268,14.016-31.268,31.266
			c0,17.252,14.02,31.269,31.268,31.269h62.535c17.252,0,31.268-14.017,31.268-31.269
			C140.411,149.11,126.396,135.098,109.144,135.098z M109.144,181.999H46.609c-8.619,0-15.632-7.023-15.632-15.634
			c0-8.578,7.599-15.176,15.648-15.417c0.035,3.691,0.674,7.296,1.956,10.715l14.644-5.469c-0.65-1.738-0.975-3.573-0.975-5.464
			c0-8.608,7.011-15.633,15.632-15.633c5.057,0,9.629,2.504,12.51,6.416c-7.55,5.704-12.515,14.663-12.515,24.852h15.634
			c0-8.609,7.023-15.629,15.63-15.629c8.605,0,15.629,7.023,15.629,15.629C124.77,174.976,117.755,181.999,109.144,181.999z"/>
		<g>
			<polygon fill="#3DBCDF" points="85.701,221.085 101.327,221.085 77.889,197.633 54.434,221.085 70.069,221.085 70.069,244.535 
				85.701,244.535 			"/>
		</g>
	</g>
</g>
</svg>
